# xmcd
#
# Track frame offsets:
#	150
#	13157
#	23314
#	32720
#	42604
#	52943
#	63274
#	73719
#	85435
#	96416
#
# Disc length: 1406 seconds
#
# Revision: 1
# Processed by: cddbd v1.5.2PL0 Copyright (c) Steve Scherf et al.
# Submitted via: audiograbber 1.83.01
#
DISCID=7f057c0a
DTITLE=Porter Wagoner - An Old Log Cabin For Sale
DYEAR=1965
DGENRE=Country
TTITLE0=An Old Log Cabin For Sale
TTITLE1=Dear Lonesome
TTITLE2=Your Love
TTITLE3=Hey, Maw!
TTITLE4=Our Love Song
TTITLE5=Everything She Touches Gets The Blues
TTITLE6=The Battle Of Little Big Horn
TTITLE7=Tomorrow, We'll Retire
TTITLE8=Let's Squiggle
TTITLE9=Me And Fred And Joe And Bill
EXTD=
EXTT0=
EXTT1=
EXTT2=
EXTT3=
EXTT4=
EXTT5=
EXTT6=
EXTT7=
EXTT8=
EXTT9=
PLAYORDER=
